<?xml version="1.0" standalone="no"?><!DOCTYPE svg PUBLIC "-//W3C//DTD SVG 1.1//EN" "http://www.w3.org/Graphics/SVG/1.1/DTD/svg11.dtd"><svg t="1622384803828" class="icon" viewBox="0 0 1024 1024" version="1.1" xmlns="http://www.w3.org/2000/svg" p-id="4734" xmlns:xlink="http://www.w3.org/1999/xlink" width="200" height="200"><defs><style type="text/css"></style></defs><path d="M512.019946 907.55467c-25.710768 0-47.466218-15.822472-55.377454-39.556181l-41.53324 0c9.889295 45.489158 49.443477 79.110163 96.910695 79.110163s87.022399-33.622004 96.909695-79.110163l-41.533041 0C559.486364 891.733197 537.730715 907.55467 512.019946 907.55467zM826.484739 767.134675l-37.577123-57.355513L788.907617 432.891492c0-132.509758-92.955576-243.264866-217.554098-270.954493L571.353518 136.226031c0-33.622004-25.710768-59.332772-59.332772-59.332772s-59.332772 25.710768-59.332772 59.332772l0 25.710768c-124.599522 27.688827-217.554098 138.442936-217.554098 270.954493l0 276.88767-37.577123 57.355513c-17.799532 25.710768 0 61.310631 31.643945 61.310631l563.662837 0C826.484739 828.444507 844.284271 792.845443 826.484739 767.134675zM492.242356 136.226031c0-11.866355 7.911236-19.777591 19.777591-19.777591s19.777591 7.911236 19.777591 19.777591l0 19.777591-39.556181 0L492.242356 136.226031 492.242356 136.226031zM229.199099 788.889325l37.577123-57.355513 5.933177-9.889295 0-11.866355L272.709399 432.891292c0-130.532699 106.79899-237.331689 237.331689-237.331689s237.332688 106.79899 237.332688 237.331689l0 276.88767 0 11.866355 5.933177 9.889295 37.577123 57.355513L229.199099 788.889325z" p-id="4735" fill="#25b864"></path></svg>