<?xml version="1.0" standalone="no"?><!DOCTYPE svg PUBLIC "-//W3C//DTD SVG 1.1//EN" "http://www.w3.org/Graphics/SVG/1.1/DTD/svg11.dtd"><svg t="1622607379639" class="icon" viewBox="0 0 1024 1024" version="1.1" xmlns="http://www.w3.org/2000/svg" p-id="2973" xmlns:xlink="http://www.w3.org/1999/xlink" width="200" height="200"><defs><style type="text/css"></style></defs><path d="M522.666667 149.333333C728.853333 149.333333 896 316.48 896 522.666667S728.853333 896 522.666667 896 149.333333 728.853333 149.333333 522.666667 316.48 149.333333 522.666667 149.333333z m0 64C351.829333 213.333333 213.333333 351.829333 213.333333 522.666667S351.829333 832 522.666667 832 832 693.504 832 522.666667 693.504 213.333333 522.666667 213.333333z m10.666666 458.666667a32 32 0 1 1 0 64 32 32 0 0 1 0-64zM533.333333 298.666667a149.333333 149.333333 0 0 1 34.922667 294.549333l-2.922667 0.64v30.72a32 32 0 0 1-28.928 31.850667l-3.072 0.149333a32 32 0 0 1-31.850666-28.928l-0.149334-3.072V565.333333A32 32 0 0 1 533.333333 533.333333a85.333333 85.333333 0 1 0-85.333333-85.333333 32 32 0 0 1-64 0 149.333333 149.333333 0 0 1 149.333333-149.333333z" p-id="2974" fill="#5a5a5a"></path></svg>