<?xml version="1.0" standalone="no"?><!DOCTYPE svg PUBLIC "-//W3C//DTD SVG 1.1//EN" "http://www.w3.org/Graphics/SVG/1.1/DTD/svg11.dtd"><svg t="1622644424556" class="icon" viewBox="0 0 1024 1024" version="1.1" xmlns="http://www.w3.org/2000/svg" p-id="6522" xmlns:xlink="http://www.w3.org/1999/xlink" width="16" height="16"><defs><style type="text/css"></style></defs><path d="M826.262069 584.386207l-1.765517-47.668966 7.062069-8.827586c-19.42069-17.655172-56.496552-54.731034-72.386207-67.089655-15.889655-10.593103-40.606897 1.765517-51.2 7.062069-5.296552 1.765517-8.827586 3.531034-14.124138 3.531034H670.896552l7.062069-24.717241c1.765517-5.296552-1.765517-24.717241-7.062069-40.606896l-7.062069-22.951725 141.241379-5.296551 112.993104 139.475862v38.841379l-91.806897 28.248276z m51.2-61.793104l-5.296552 12.358621 15.889655-1.765517-10.593103-10.593104z m-130.648276-100.634482c12.358621 0 22.951724 3.531034 35.310345 10.593103l1.765517 1.765517c19.42069 15.889655 82.97931 77.682759 86.510345 79.448276l3.531034 3.531035-81.213793-100.634483-77.682758 1.765517c0 3.531034 1.765517 7.062069 1.765517 10.593104 7.062069-3.531034 17.655172-7.062069 30.013793-7.062069zM466.096552 861.572414l1.765517-42.372414c-24.717241-17.655172-102.4-74.151724-107.696552-77.682759-12.358621-8.827586-12.358621-22.951724-14.124138-30.013793-5.296552-15.889655 28.248276-65.324138 38.84138-74.151724l8.827586-8.827586 3.531034 1.765517c8.827586-3.531034 15.889655-7.062069 24.717242-10.593103 30.013793-14.124138 58.262069-26.482759 97.103448-30.013793l102.4-8.827587-93.572414 42.372414c-3.531034 1.765517-5.296552 3.531034-5.296552 3.531035 0 3.531034-1.765517 8.827586-8.827586 14.124138-1.765517 1.765517-7.062069 10.593103-10.593103 15.889655-12.358621 19.42069-22.951724 35.310345-33.544828 42.372414l90.04138 74.151724 44.137931 17.655172-56.496552 70.62069h-81.213793z m-84.744828-148.303448c14.124138 10.593103 114.758621 82.97931 114.758621 82.97931l7.062069 5.296552v24.717241h28.248276l15.889655-19.42069-3.531035-1.765517-97.103448-79.448276c-3.531034-3.531034-15.889655-17.655172-12.358621-33.544827 1.765517-8.827586 7.062069-15.889655 15.889656-21.186207 5.296552-3.531034 19.42069-24.717241 26.482758-33.544828 0 0 0-1.765517 1.765517-1.765517-14.124138 5.296552-26.482759 10.593103-38.841379 17.655172-8.827586 3.531034-19.42069 8.827586-30.013793 14.124138-10.593103 12.358621-22.951724 33.544828-26.482759 42.372414-3.531034 0-1.765517 3.531034-1.765517 3.531035z m-1.765517 0z m132.413793-72.386207z" p-id="6523" fill="#35495e"></path><path d="M211.862069 903.944828H104.165517v-44.137931l7.062069-5.296552c1.765517-1.765517 19.42069-12.358621 31.779311-21.186207 10.593103-38.841379 54.731034-121.82069 65.324137-139.475862 7.062069-15.889655 31.77931-42.372414 54.731035-67.089655 14.124138-15.889655 30.013793-31.77931 35.310345-40.606897 5.296552-8.827586 1.765517-21.186207-1.765517-31.77931-7.062069 10.593103-21.186207 17.655172-38.84138 17.655172-17.655172 0-38.841379-5.296552-44.137931-21.186207-7.062069-15.889655 5.296552-38.841379 17.655173-56.496551l5.296551-8.827587 93.572414 8.827587c24.717241-21.186207 67.089655-44.137931 137.710345-44.137931 14.124138-22.951724 38.841379-35.310345 52.965517-42.372414 1.765517-1.765517 5.296552-1.765517 7.062069-3.531035 7.062069-42.372414-17.655172-84.744828-26.482758-97.103448L459.034483 259.531034l-72.386207-38.841379 100.634483 37.075862 10.593103 14.124138c3.531034 0 10.593103-12.358621 15.889655-12.358621 45.903448-63.558621 153.6-31.77931 158.896552-30.013793l7.062069 1.765518 21.186207 49.434482-30.013793-3.531034c-12.358621-1.765517-28.248276 15.889655-37.075862 28.248276 65.324138 42.372414 77.682759 118.289655 74.151724 162.427586l123.586207 77.682759v58.262069l-47.668966 88.275862-84.744827 1.765517-1.765518-15.889655c0-7.062069-1.765517-17.655172 0-24.717242l1.765518-12.35862 12.35862-1.765518c17.655172-1.765517 24.717241-17.655172 22.951724-52.965517-12.358621-10.593103-68.855172-19.42069-97.103448-19.42069-10.593103 12.358621-33.544828 28.248276-88.275862 54.731035l-3.531034 1.765517h-3.531035c-47.668966 1.765517-90.041379 15.889655-139.475862 31.779311l-7.062069 1.765517c-139.475862 45.903448-155.365517 158.896552-160.662069 208.331034-5.296552 14.124138-5.296552 21.186207-5.296552 21.186207v17.655173h-17.655172z m-60.027586-35.310345h44.137931v-7.062069c7.062069-52.965517 24.717241-188.910345 192.441379-240.110345h1.765517c47.668966-15.889655 95.337931-31.77931 144.772414-33.544828 65.324138-30.013793 74.151724-44.137931 74.151724-44.137931l5.296552-8.827586 10.593103-1.765517c1.765517 0 118.289655-1.765517 141.24138 38.841379l1.765517 3.531035v7.062069c1.765517 35.310345-3.531034 61.793103-19.42069 75.917241h12.358621l33.544828-61.793103v-30.013794l-125.351725-79.448275 1.765518-10.593104c0-5.296552 14.124138-109.462069-74.151724-148.303448l-31.779311-15.889655 28.248276-17.655173 10.593104-10.593103c7.062069-8.827586 15.889655-19.42069 26.482758-26.482759-30.013793-3.531034-75.917241-3.531034-93.572414 28.248276l-5.296551 8.827586H529.655172c12.358621 21.186207 38.841379 70.62069 28.248276 125.351724-3.531034 12.358621-14.124138 17.655172-26.482758 22.951725-15.889655 7.062069-33.544828 15.889655-40.606897 33.544827l-3.531034 12.358621h-12.358621c-70.62069-1.765517-109.462069 19.42069-128.882759 40.606896l-5.296551 5.296552-19.42069-1.765517c7.062069 12.358621 22.951724 45.903448 5.296552 74.151724-7.062069 10.593103-21.186207 26.482759-38.84138 44.137931-19.42069 21.186207-44.137931 45.903448-49.434482 60.027586-17.655172 30.013793-60.027586 114.758621-63.558621 137.710345l-1.765517 8.827586-8.827587 3.531035c-1.765517 1.765517-7.062069 3.531034-12.35862 7.062069zM247.172414 538.482759c3.531034 1.765517 10.593103 1.765517 14.124138 0 3.531034-1.765517 3.531034-3.531034 3.531034-3.531035 1.765517-3.531034 1.765517-5.296552 3.531035-7.062069l-15.889655-1.765517c-1.765517 3.531034-5.296552 8.827586-5.296552 12.358621z" p-id="6524" fill="#35495e"></path><path d="M536.717241 268.358621l3.531035-8.827587c-1.765517-1.765517-3.531034-3.531034-3.531035-7.062068-5.296552-1.765517-7.062069-5.296552-7.062069-8.827587l-1.765517-1.765517c-1.765517 0-3.531034-1.765517-5.296552-3.531034-1.765517-1.765517-1.765517-3.531034-1.765517-3.531035-1.765517 0-3.531034-1.765517-5.296552-1.765517-3.531034-3.531034-3.531034-3.531034-3.531034-5.296552l-1.765517-1.765517c-3.531034 0-5.296552-1.765517-8.827586-5.296552-1.765517 0-1.765517-1.765517-3.531035-1.765517-3.531034 0-5.296552-1.765517-8.827586-5.296552-1.765517 0-1.765517-1.765517-3.531035-1.765517-3.531034 0-7.062069-1.765517-10.593103-3.531035-1.765517 0-1.765517 0-3.531035-1.765517-3.531034 0-5.296552 0-8.827586-1.765517-1.765517 0-1.765517 0-3.531034-1.765517h-1.765517c-1.765517 0-5.296552 0-7.062069-1.765517l-5.296552-1.765518c-3.531034 0-5.296552 0-8.827586-1.765517h-1.765518c-3.531034 0-5.296552 0-8.827586-1.765517h-3.531034c-3.531034 1.765517-7.062069 0-10.593104-1.765517-1.765517 0-1.765517 0-3.531034-1.765518-3.531034 0-7.062069 0-10.593104-3.531034l-5.296551-1.765517c-1.765517 0-5.296552-1.765517-7.062069-3.531035-7.062069-3.531034-12.358621-7.062069-15.889656-10.593103-10.593103-8.827586-26.482759-28.248276-26.482758-35.310345 0-3.531034 3.531034-7.062069 7.062069-7.062069s7.062069 1.765517 8.827586 3.531034c1.765517 1.765517 10.593103 10.593103 22.951724 17.655173 3.531034 1.765517 8.827586 3.531034 14.124138 5.296551 3.531034 0 7.062069 0 8.827586 1.765518 1.765517 0 3.531034 0 3.531035 1.765517 5.296552-1.765517 8.827586 0 10.593103 1.765517l1.765517 1.765517c5.296552-1.765517 8.827586 0 10.593104 1.765518h1.765517c3.531034-1.765517 8.827586 0 10.593104 1.765517h1.765517c3.531034-1.765517 5.296552-1.765517 7.062069 0 1.765517 0 1.765517 1.765517 3.531034 1.765517h1.765518c3.531034-1.765517 7.062069 0 8.827586 0 1.765517 0 1.765517 1.765517 3.531034 1.765517s3.531034 0 5.296552 1.765518c3.531034-1.765517 5.296552 0 7.062069 0 1.765517 0 3.531034 1.765517 3.531034 3.531034 1.765517 0 3.531034 1.765517 5.296552 1.765517 3.531034 0 7.062069 0 8.827586 1.765518 1.765517 1.765517 3.531034 1.765517 3.531035 3.531034 1.765517 1.765517 5.296552 1.765517 7.062069 3.531035 3.531034 0 7.062069 1.765517 7.062069 1.765517 1.765517 0 1.765517 1.765517 1.765517 3.531034 1.765517 1.765517 3.531034 1.765517 5.296552 3.531035 3.531034 0 7.062069 1.765517 8.827586 3.531034l1.765517 1.765518c1.765517 0 1.765517 1.765517 3.531035 1.765517 3.531034 0 5.296552 1.765517 7.062069 1.765517 1.765517 1.765517 3.531034 3.531034 3.531034 5.296552l3.531035 3.531034c3.531034 1.765517 7.062069 3.531034 7.062069 5.296552 0 1.765517 1.765517 3.531034 1.765517 3.531034l1.765517 1.765518c3.531034 1.765517 7.062069 3.531034 8.827586 7.062069V236.57931c3.531034 1.765517 5.296552 3.531034 5.296552 5.296552v5.296552c1.765517 1.765517 1.765517 3.531034 1.765517 3.531034l3.531035 7.062069-45.903449 10.593104z m10.593104-24.717242l3.531034 8.827587 15.889655-3.531035-1.765517-3.531034-1.765517-1.765518c-1.765517-1.765517-1.765517-3.531034-3.531034-5.296551l-5.296552-5.296552-5.296552-5.296552-5.296552-5.296552-5.296551-5.296551-5.296552-5.296552c-1.765517-1.765517-3.531034-3.531034-7.062069-3.531035l-7.062069-3.531034c-3.531034-1.765517-5.296552-3.531034-8.827586-5.296552l-5.296552-3.531034c-3.531034-1.765517-7.062069-3.531034-10.593103-3.531035l-3.531035-1.765517h-3.531034c-1.765517 0-5.296552-1.765517-8.827587-1.765517l-5.296551-1.765517c-3.531034 0-7.062069-1.765517-10.593104-1.765518l-15.889655-1.765517h-1.765517l-28.248276-3.531034h1.765517c-1.765517 0-3.531034 0-5.296552-1.765518L388.413793 171.255172c1.765517 0 1.765517 1.765517 3.531035 1.765518l14.124138 7.062069h3.531034c1.765517 0 3.531034 1.765517 7.062069 1.765517l3.531034 1.765517 12.358621 1.765517 12.358621 3.531035 12.358621 3.531034h3.531034c1.765517 0 5.296552 1.765517 7.062069 1.765518l3.531034 1.765517h1.765518c1.765517 0 5.296552 1.765517 7.062069 1.765517l1.765517 1.765517 1.765517 1.765518h3.531035c3.531034 1.765517 5.296552 1.765517 7.062069 3.531034l1.765517 1.765517 1.765517 1.765517h1.765517l1.765518 1.765518c1.765517 1.765517 5.296552 3.531034 7.062069 5.296551l3.531034-3.531034v1.765517h3.531034c1.765517 1.765517 3.531034 1.765517 5.296552 3.531035l1.765517 1.765517 1.765518 1.765517c1.765517 1.765517 3.531034 3.531034 5.296551 3.531035l1.765518 1.765517v1.765517h1.765517l1.765517 1.765517c1.765517 1.765517 3.531034 3.531034 3.531035 5.296552l1.765517 1.765517 1.765517 1.765518c3.531034 5.296552 3.531034 5.296552 5.296552 5.296551z m-21.186207-38.841379z m-67.089655-14.124138z m-26.482759-5.296552c1.765517 0 0 0 0 0z m-24.717241-5.296551z m-22.951724-12.358621c1.765517 0 1.765517 1.765517 3.531034 1.765517h1.765517c-3.531034 0-5.296552-1.765517-5.296551-1.765517z m-37.075862-28.248276s0 1.765517 1.765517 1.765517l-1.765517-1.765517z" p-id="6525" fill="#35495e"></path><path d="M522.593103 347.806897l-8.827586-15.889656c-1.765517-1.765517-1.765517-3.531034-1.765517-10.593103 0-7.062069-1.765517-21.186207-3.531034-28.248276l-5.296552-5.296552c-1.765517 0-3.531034-1.765517-5.296552-3.531034l-1.765517-1.765517c-3.531034 0-5.296552-1.765517-7.062069-5.296552l-1.765517-1.765517c-1.765517 0-7.062069-1.765517-8.827587-5.296552H476.689655c-3.531034 0-7.062069-1.765517-10.593103-5.296552h-1.765518c-3.531034 0-8.827586-1.765517-10.593103-5.296552-3.531034 0-7.062069-1.765517-10.593103-5.296551 0 0-1.765517 0-1.765518-1.765517-3.531034 0-7.062069-1.765517-8.827586-3.531035h-1.765517c-3.531034 0-7.062069 0-10.593104-3.531034h-1.765517c-3.531034 0-7.062069 0-10.593103-1.765518h-5.296552c-1.765517 0-3.531034-1.765517-5.296552-1.765517-3.531034 1.765517-7.062069 0-10.593103-1.765517h-1.765517c-1.765517 0-3.531034 1.765517-5.296552 1.765517-1.765517 0-3.531034 0-5.296552-1.765517h-7.062069c-10.593103 0-22.951724 0-30.013793-1.765517-28.248276-5.296552-51.2-31.77931-51.2-33.544828l-3.531034-7.062069c-1.765517-5.296552 1.765517-10.593103 7.062069-14.124138 5.296552-1.765517 12.358621 0 14.124138 5.296552 3.531034 3.531034 28.248276 14.124138 37.075862 14.124138h14.124138c7.062069 0 17.655172-1.765517 28.248275-1.765517 5.296552-1.765517 8.827586-1.765517 12.358621 0 5.296552-1.765517 8.827586-1.765517 10.593104 0 0 0 1.765517 0 1.765517 1.765517h1.765517c5.296552-1.765517 8.827586-1.765517 12.358621 1.765517 1.765517 0 7.062069 0 8.827586 1.765517h3.531034c3.531034 0 7.062069 0 10.593104 1.765517l1.765517 1.765518h1.765517c3.531034 0 10.593103 0 14.124138 3.531034h1.765517c5.296552 0 8.827586 0 10.593104 1.765517 1.765517 0 1.765517 1.765517 3.531034 3.531035h1.765518c3.531034 0 7.062069 1.765517 8.827586 1.765517l3.531034 3.531035h1.765518c5.296552 0 7.062069 1.765517 8.827586 3.531034l3.531034 3.531035c5.296552 0 8.827586 3.531034 10.593104 7.062069h1.765517c5.296552 0 7.062069 3.531034 8.827586 5.296551l1.765517 1.765518c5.296552 0 7.062069 3.531034 8.827587 5.296551 3.531034 0 5.296552 1.765517 7.062069 3.531035l1.765517 1.765517 3.531034 3.531034 5.296552 3.531035-33.544828 84.744828z m-3.531034-72.386207l1.765517 1.765517c1.765517 1.765517 3.531034 5.296552 5.296552 12.358621l8.827586-21.186207h-1.765517l-45.903448-26.482759-12.358621-5.296552c-3.531034-1.765517-3.531034-1.765517-7.062069-1.765517l-5.296552-1.765517h-1.765517c-1.765517 0-5.296552-1.765517-7.062069-1.765517l-44.137931-10.593104c-1.765517 0-5.296552 0-7.062069-1.765517h-17.655172c-10.593103 0-19.42069 1.765517-28.248276 1.765517H390.17931l28.248276 5.296552h1.765517c3.531034 0 5.296552 1.765517 7.062069 1.765517l3.531035 1.765517 8.827586 3.531035v-1.765517l26.482759 14.124138h1.765517l12.358621 7.062069 8.827586 5.296551 1.765517 3.531035h3.531035l24.717241 14.124138z m-7.062069 0z m-44.137931-30.013793c0 1.765517 0 0 0 0z m-84.744828-24.717242z m-93.572413-22.951724s0 1.765517 0 0c0 1.765517 0 0 0 0z" p-id="6526" fill="#35495e"></path></svg>