<?xml version="1.0" standalone="no"?><!DOCTYPE svg PUBLIC "-//W3C//DTD SVG 1.1//EN" "http://www.w3.org/Graphics/SVG/1.1/DTD/svg11.dtd"><svg t="1622645821451" class="icon" viewBox="0 0 1024 1024" version="1.1" xmlns="http://www.w3.org/2000/svg" p-id="5051" data-spm-anchor-id="a313x.7781069.0.i0" width="128" height="128" xmlns:xlink="http://www.w3.org/1999/xlink"><defs><style type="text/css"></style></defs><path d="M125.058157 1023.979l-0.359997 0.002c-8.553908 0-16.259825-3.628961-21.662767-9.429898l-0.016-0.018c-5.879937-5.526941-9.540898-13.354857-9.540897-22.039764s3.661961-16.510823 9.524898-22.023763l0.015999-0.015 431.335367-433.224346c6.380931-6.47493 10.321889-15.370835 10.321889-25.187729s-3.939958-18.711799-10.325889-25.19173l0.004 0.004-431.335367-433.225346c-5.879937-5.526941-9.540898-13.354857-9.540897-22.038763s3.661961-16.511823 9.524898-22.023764l0.015999-0.015C108.546334 3.671961 116.37425 0.01 125.059157 0.01s16.510823 3.661961 22.023763 9.524898l0.015 0.015999 433.224346 431.335367c17.73381 17.957807 28.687692 42.647542 28.687692 69.895249s-10.953882 51.937442-28.697692 69.905249l0.01-0.01-433.225346 433.85534c-5.418942 5.817938-13.124859 9.446899-21.677767 9.446898l-0.379996-0.002h0.02z" p-id="5052" data-spm-anchor-id="a313x.7781069.0.i6" class="selected" fill="#ffffff"></path><path d="M448.71768 1023.979l-0.359996 0.002c-8.553908 0-16.259825-3.628961-21.662768-9.429898l-0.015999-0.018c-5.879937-5.526941-9.540898-13.354857-9.540898-22.039764s3.660961-16.510823 9.524898-22.023763l0.016-0.015 428.1864-428.816393c7.804916-7.46692 12.656864-17.963807 12.656864-29.595682s-4.851948-22.129762-12.641864-29.581683l-0.015-0.014L426.678917 53.630424c-5.879937-5.527941-9.540898-13.355857-9.540898-22.039763s3.660961-16.511823 9.524898-22.023764l0.016-0.015c5.526941-5.879937 13.354857-9.540898 22.039763-9.540897s16.510823 3.661961 22.023763 9.524898l0.015 0.015999 428.816394 431.335367c18.981796 19.045795 30.74967 45.289513 30.854668 74.283202v0.02c-0.249997 28.987689-11.982871 55.189407-30.866668 74.314201l0.011-0.009999-428.187401 425.037434c-5.419942 5.826937-13.130859 9.461898-21.690767 9.461898-0.343996 0-0.685993-0.006-1.026989-0.017l0.05 0.001z" p-id="5053" data-spm-anchor-id="a313x.7781069.0.i3" class="selected" fill="#ffffff"></path></svg>