<?xml version="1.0" standalone="no"?><!DOCTYPE svg PUBLIC "-//W3C//DTD SVG 1.1//EN" "http://www.w3.org/Graphics/SVG/1.1/DTD/svg11.dtd"><svg t="1622644237408" class="icon" viewBox="0 0 1024 1024" version="1.1" xmlns="http://www.w3.org/2000/svg" p-id="6017" xmlns:xlink="http://www.w3.org/1999/xlink" width="16" height="16"><defs><style type="text/css"></style></defs><path d="M916.33 859.76L678.51 621.94A318.92 318.92 0 0 0 768 400c0-176.73-143.27-320-320-320S128 223.27 128 400s143.27 320 320 320a318.48 318.48 0 0 0 167.88-47.55l243.88 243.88a40 40 0 1 0 56.57-56.57zM192 400c0-141.38 114.62-256 256-256s256 114.62 256 256-114.62 256-256 256-256-114.62-256-256z" p-id="6018"></path></svg>