<?xml version="1.0" standalone="no"?><!DOCTYPE svg PUBLIC "-//W3C//DTD SVG 1.1//EN" "http://www.w3.org/Graphics/SVG/1.1/DTD/svg11.dtd"><svg t="1622783359019" class="icon" viewBox="0 0 1024 1024" version="1.1" xmlns="http://www.w3.org/2000/svg" p-id="2852" data-spm-anchor-id="a313x.7781069.0.i0" xmlns:xlink="http://www.w3.org/1999/xlink" width="200" height="200"><defs><style type="text/css"></style></defs><path d="M533.333333 467.626667h36.693334v-69.973334H533.333333v69.973334z m20.266667-59.093334c6.4 0.213333 10.026667 3.413333 10.666667 9.6l4.906666 40.533334h-18.773333c-6.613333 0-10.24-3.2-10.88-9.813334l-4.48-40.32h18.56zM547.84 581.546667h96.426667v14.293333h-96.426667zM547.84 658.133333h87.893333c5.76 0 8.533333-3.413333 8.533334-10.453333v-6.4h-96.426667v16.853333zM367.786667 595.2l8.96-19.413333V405.333333h42.666666v169.386667l10.026667 21.973333v-207.146666h-61.653333zM618.453333 467.626667h32.64c3.84 0 5.546667-2.346667 5.546667-7.04v-62.933334h-38.4v69.973334z m7.253334-49.493334c1.066667-6.186667 4.48-9.386667 10.88-9.6h18.56l-5.76 40.533334c-0.853333 6.4-4.48 9.6-10.88 9.6h-18.56l5.76-40.533334z" p-id="2853" fill="#fdfded"></path><path d="M512 85.333333C276.266667 85.333333 85.333333 276.266667 85.333333 512s190.933333 426.666667 426.666667 426.666667 426.666667-190.933333 426.666667-426.666667S747.733333 85.333333 512 85.333333z m-67.413333 622.72c-6.613333 0-11.733333-1.066667-14.933334-3.413333a12.8 12.8 0 0 1-4.266666-3.84c-0.64-0.64-2.133333-4.266667-4.906667-10.88L399.36 640l-20.693333 51.84c-2.56 6.186667-5.76 10.453333-9.6 13.013333-3.2 2.133333-8.32 3.413333-15.146667 3.413334h-37.973333l48.853333-106.666667h-39.893333V329.813333h42.666666v20.693334c3.84-8.533333 8.106667-14.08 13.013334-16.64 5.12-2.56 12.8-4.053333 23.04-4.053334h68.266666v271.146667h-40.746666l49.28 107.306667h-35.84z m256.64-36.266666l-2.346667 10.453333c-1.066667 6.186667-2.133333 10.24-3.84 12.586667-3.84 5.546667-8.32 9.173333-13.653333 10.666666-2.133333 0.64-5.973333 1.066667-11.733334 1.066667h-178.773333V533.333333h56.96v18.56c2.56-7.893333 5.333333-13.013333 8.32-15.36 2.56-2.133333 6.613333-3.2 12.16-3.2h132.906667v138.453334z m6.613333-197.76c0 15.786667-1.706667 26.24-5.333333 31.786666-3.413333 5.12-8.32 8.32-14.933334 9.6-1.92 0.426667-8.533333 0.64-20.053333 0.64H482.133333v-166.613333h34.986667l-8.746667-33.493333h45.226667c4.906667 0 8.746667 1.066667 11.306667 3.2s4.48 5.76 5.76 11.306666l5.12 19.2h39.68l6.613333-19.626666c1.706667-5.333333 4.053333-9.173333 6.4-11.093334s6.4-2.986667 11.946667-2.986666h43.946666l-10.666666 33.493333h34.133333v124.586667z" p-id="2854" fill="#fdfded"></path></svg>