<?xml version="1.0" standalone="no"?><!DOCTYPE svg PUBLIC "-//W3C//DTD SVG 1.1//EN" "http://www.w3.org/Graphics/SVG/1.1/DTD/svg11.dtd"><svg t="1622790295209" class="icon" viewBox="0 0 1024 1024" version="1.1" xmlns="http://www.w3.org/2000/svg" p-id="21387" data-spm-anchor-id="a313x.7781069.0.i43" xmlns:xlink="http://www.w3.org/1999/xlink" width="200" height="200"><defs><style type="text/css"></style></defs><path d="M1005.82921131 487.97205263c-0.76279147-16.78142374-15.25583977-29.74888702-32.03726247-28.98609556-16.78142374 0.76279147-29.74888702 15.25583977-28.98609555 32.03726351 0.76279147 7.62791989 0.76279147 15.25583977 0.76279147 22.88375966 0 239.51668222-195.2747469 434.79142912-434.79142912 434.79142911s-434.79142912-195.2747469-434.79142912-434.79142911 195.2747469-434.79142912 434.79142912-434.79142912c63.31173451 0 125.09788503 13.73025579 182.30728363 39.66518233 6.86512737 3.05116795 12.96746327 6.10233591 19.83259168 9.91629638 15.25583977 7.62791989 33.56284748 2.28837544 41.19076738-12.96746433s2.28837544-33.56284748-12.96746434-41.19076631c-7.62791989-3.81395941-14.49304726-7.62791989-22.12096713-10.67908784-65.60010993-30.51167953-135.01418036-45.7675193-207.47941871-45.76751929-273.84232117 0-495.81478818 222.73525848-495.81478818 495.81478818s222.73525848 495.81478818 495.81478818 495.81478711 495.81478818-222.73525848 495.81478713-495.81478711c-0.76279147-8.39071134-1.52558398-17.54421521-1.52558397-25.93492761z" fill="#ffffff" p-id="21388" data-spm-anchor-id="a313x.7781069.0.i38" class=""></path><path d="M954.72214862 370.50208748m-32.80005498 0a32.80005498 32.80005498 0 1 0 65.60011099 0 32.80005498 32.80005498 0 1 0-65.60011099 0Z" fill="#ffffff" p-id="21389" data-spm-anchor-id="a313x.7781069.0.i39" class=""></path><path d="M905.1406699 263.71121018m-32.80005497 0a32.80005498 32.80005498 0 1 0 65.60010995 0 32.80005498 32.80005498 0 1 0-65.60010995 0Z" fill="#ffffff" p-id="21390" data-spm-anchor-id="a313x.7781069.0.i40" class=""></path><path d="M825.81030417 171.41338012m-32.80005497 0a32.80005498 32.80005498 0 1 0 65.60010995 0 32.80005498 32.80005498 0 1 0-65.60010995 0Z" fill="#ffffff" p-id="21391" data-spm-anchor-id="a313x.7781069.0.i41" class=""></path><path d="M434.49801786 758.76320584c18.30700772 0 32.80005498-14.49304726 32.80005497-32.80005496v-423.34954983c0-12.96746327-8.39071134-25.17213508-20.59538316-30.51167953-12.20467181-5.33954339-26.69771906-2.28837544-35.85122292 6.86512843l-140.35372479 140.35372479c-12.96746327 12.96746327-12.96746327 33.56284748 0 46.53031075 12.96746327 12.96746327 33.56284748 12.96746327 46.53031076 0l84.66991017-84.66991016V725.20035836c0 19.06979918 14.49304726 33.56284748 32.80005497 33.56284748zM580.19128604 269.05075357c-18.30700772 0-32.80005498 14.49304726-32.80005496 32.80005602V725.20035836c0 12.96746327 8.39071134 25.17213508 20.59538315 30.51167954 3.81395941 1.52558398 8.39071134 2.28837544 12.96746433 2.28837648 8.39071134 0 16.78142374-3.05116795 23.64655112-9.91629637l146.45606069-146.4560607c12.96746327-12.96746327 12.96746327-33.56284748 0-46.53031076-12.96746327-12.96746327-33.56284748-12.96746327-46.53031076 0l-90.77224608 90.77224608v-344.01918304c-0.76279147-18.30700772-16.01863123-32.80005498-33.56284749-32.80005602z" fill="#88491d" p-id="21392" data-spm-anchor-id="a313x.7781069.0.i42" class="selected"></path></svg>