<svg t="1621926685701" class="icon" viewBox="0 0 1024 1024" version="1.1" xmlns="http://www.w3.org/2000/svg" p-id="802" width="200" height="200"><path d="M540.22826667 659.63804445l-27.9552-81.07804445-28.3648 80.93013333-85.74293334 1.536 68.20977778 51.98506667-25.04248889 82.0224 70.51946667-48.81066667 70.26915556 49.16337778-24.62151112-82.14755556 68.46008889-51.64373333-85.73155555-1.95697777z" fill="#d81e06" p-id="803"></path><path d="M910.22222222 155.29528889A119.62595555 119.62595555 0 0 1 790.75555555 36.40888889a30.72 30.72 0 0 0-30.72-30.72H263.96444445a30.72 30.72 0 0 0-30.72 30.72 119.62595555 119.62595555 0 0 1-119.46666667 118.8864 30.72 30.72 0 0 0-30.72 30.72v242.34666666q0 1.27431111 0.1024 2.54862223c8.96568889 107.90684445 36.40888889 205.86951111 81.63555555 291.18008889a630.61333333 630.61333333 0 0 0 142.01742222 179.76888888C405.62915555 988.52408889 499.48444445 1016.50204445 503.40977778 1017.6512a30.72 30.72 0 0 0 17.16906667 0c3.94808889-1.13777778 97.78062222-29.12711111 196.59662222-115.70062222a630.60195555 630.60195555 0 0 0 142.01742222-179.76888889c45.20391111-85.33333333 72.66986667-183.27324445 81.63555556-291.18008889q0.1024-1.26293333 0.1024-2.54862222v-242.34666667A30.72 30.72 0 0 0 910.22222222 155.29528889z m-30.72 271.83786666c-8.31715555 98.37226667-33.12071111 187.38062222-73.71662222 264.57884445a569.62844445 569.62844445 0 0 1-126.96462222 162.15608889C606.43555555 917.93635555 535.89333333 947.06346667 512 955.73333333c-24.00711111-8.704-94.43555555-37.83111111-166.83235555-101.87662222a569.62844445 569.62844445 0 0 1-126.95324445-162.14471111c-40.59591111-77.2096-65.39946667-166.20657778-73.71662222-264.57884445v-212.992c75.09333333-12.87964445 134.61048889-72.11235555 147.5584-147.01226666h439.88764444C744.89173333 142.0288 804.40888889 201.26151111 879.50222222 214.14115555z" fill="#d81e06" p-id="804"></path><path d="M693.76 260.55111111h-363.52a30.72 30.72 0 0 0 0 61.44h363.52a30.72 30.72 0 0 0 0-61.44zM693.76 416.42666667h-363.52a30.72 30.72 0 0 0 0 61.44h363.52a30.72 30.72 0 0 0 0-61.44z" fill="#d81e06" p-id="805"></path></svg>